<?xml version="1.0" encoding="UTF-8" standalone="no"?>
<svg
   xmlns:dc="http://purl.org/dc/elements/1.1/"
   xmlns:cc="http://creativecommons.org/ns#"
   xmlns:rdf="http://www.w3.org/1999/02/22-rdf-syntax-ns#"
   xmlns:svg="http://www.w3.org/2000/svg"
   xmlns="http://www.w3.org/2000/svg"
   xmlns:xlink="http://www.w3.org/1999/xlink"
   id="svg906"
   version="1.1"
   viewBox="0 0 67.733331 67.733335"
   height="256"
   width="256">
  <title
     id="title1501">Weather Map Widget Icon</title>
  <defs
     id="defs900">
    <linearGradient
       y2="296.47894"
       x2="-295.73395"
       y1="-231.63214"
       x1="-303.20401"
       gradientTransform="matrix(0.13285718,0,0,0.13285718,107.25564,-249.524)"
       gradientUnits="userSpaceOnUse"
       id="linearGradient866"
       xlink:href="#linearGradient977" />
    <linearGradient
       id="linearGradient977">
      <stop
         id="stop973"
         offset="0"
         style="stop-color:#a61c21;stop-opacity:1;" />
      <stop
         id="stop975"
         offset="1"
         style="stop-color:#f22930;stop-opacity:1" />
    </linearGradient>
  </defs>
  <metadata
     id="metadata903">
    <rdf:RDF>
      <cc:Work
         rdf:about="">
        <dc:format>image/svg+xml</dc:format>
        <dc:type
           rdf:resource="http://purl.org/dc/dcmitype/StillImage" />
        <dc:title>Weather Map Widget Icon</dc:title>
        <dc:creator>
          <cc:Agent>
            <dc:title>David Matthew</dc:title>
          </cc:Agent>
        </dc:creator>
      </cc:Work>
    </rdf:RDF>
  </metadata>
  <g
     transform="translate(0,-229.26664)"
     id="layer1">
    <g
       style="stroke-width:1.03794682"
       transform="matrix(0.96344051,0,0,0.96344051,-30.589232,26.881103)"
       id="g1499">
      <rect
         y="-280.36902"
         x="31.749996"
         height="70.303596"
         width="70.303596"
         id="rect864"
         style="opacity:1;fill:url(#linearGradient866);fill-opacity:1;stroke:none;stroke-width:0.27296886;stroke-miterlimit:4;stroke-dasharray:none;stroke-opacity:1"
         transform="scale(1,-1)" />
      <g
         id="g872"
         transform="matrix(0.13285718,0,0,0.13285718,31.749996,243.19755)"
         style="stroke-width:7.81250095">
        <path
           style="fill:#ffffff;fill-opacity:1;stroke:none;stroke-width:10.91101646;stroke-linecap:butt;stroke-linejoin:miter;stroke-miterlimit:4;stroke-dasharray:none;stroke-opacity:1"
           d="M 346.48185,60.388562 C 279.11745,127.75297 189.01548,2.474719 99.241069,26.529702 205.94105,-27.987586 282.96695,97.05891 346.48185,60.388562 Z"
           id="path901" />
        <path
           id="path907"
           d="M 400.28891,29.749339 C 332.92451,97.11374 242.82254,-28.164504 153.04813,-4.1095208 259.74811,-58.626809 336.77401,66.419683 400.28891,29.749339 Z"
           style="fill:#ffffff;fill-opacity:1;stroke:none;stroke-width:10.91101646;stroke-linecap:butt;stroke-linejoin:miter;stroke-miterlimit:4;stroke-dasharray:none;stroke-opacity:1" />
        <path
           id="path909"
           d="m 369.66567,-39.780579 a 35.299505,35.299505 0 0 0 -5.6994,7.543459 35.299505,35.299505 0 0 1 42.28421,5.792982 35.299505,35.299505 0 0 1 5.69941,42.37695 35.299505,35.299505 0 0 0 7.63661,-5.792552 35.299505,35.299505 0 0 0 4.2e-4,-49.920834 35.299505,35.299505 0 0 0 -49.92125,-5e-6 z"
           style="opacity:1;fill:#ffffff;fill-opacity:1;stroke:none;stroke-width:2.38830233;stroke-linecap:round;stroke-miterlimit:4;stroke-dasharray:none;stroke-opacity:1;paint-order:stroke fill markers" />
        <path
           style="opacity:1;fill:#ffffff;fill-opacity:1;stroke:none;stroke-width:1.01409936;stroke-linecap:round;stroke-miterlimit:4;stroke-dasharray:none;stroke-opacity:1;paint-order:stroke fill markers"
           d="m 366.6319,6.617798 a 14.988555,14.988555 0 0 0 3.20303,2.420027 14.988555,14.988555 0 0 1 2.45976,-17.9543358 14.988555,14.988555 0 0 1 17.99372,-2.4200322 14.988555,14.988555 0 0 0 -2.45958,-3.242588 14.988555,14.988555 0 0 0 -21.19693,-1.79e-4 14.988555,14.988555 0 0 0 0,21.197108 z"
           id="path911" />
      </g>
    </g>
  </g>
</svg>
